<svg xmlns="http://www.w3.org/2000/svg" viewBox="0 0 3420 800"><defs><style>.sss-cls1{fill:none;}.sss-cls2{fill:#3a5fa8;}.sss-cls3{fill:#263d6b;}</style></defs><g id="カラーロゴでーた"><rect class="sss-cls1" x="-0.44" width="3420.88" height="800"/><path class="sss-cls2" d="M517.147,431.38l.007-.007-5.654-5.654,76.278-76.277a235.745,235.745,0,0,0-42.348-57.807l-84.007,84.007L436.385,350.6,535.02,251.97a242.462,242.462,0,0,0-42.653-57.5L386.308,300.527l-25.039-25.039L459.9,176.854a242.462,242.462,0,0,0-42.653-57.5L311.192,225.411h0l-65.556,65.555L352.674,398.005h0l98.047,98.047c.29.29.587.587.863.891a57.07,57.07,0,0,1,15.9,41.21c0,.141-.007.262-.014.4-.029.919-.078,1.846-.163,2.751-.028.424-.057.848-.113,1.258a57.295,57.295,0,1,1-97.5-46.513l15.471-15.472-64.424-64.424a146.923,146.923,0,0,0-14.453,12.261c-.722.679-1.436,1.379-2.143,2.086a149.928,149.928,0,0,0-10.352,200.677,154.022,154.022,0,0,0,10.352,11.455,150,150,0,0,0,213-211.248Z"/><path class="sss-cls3" d="M450.721,577.072a57.295,57.295,0,0,1-81.027-81.027l15.471-15.472-9.143-9.143-49.794-49.794-6.611-6.611L304.145,430.5a149.928,149.928,0,0,0-10.352,200.677,114.585,114.585,0,0,0,173.4-88.615A57.022,57.022,0,0,1,450.721,577.072Z"/><path class="sss-cls2" d="M917.1,323.924c31.381,0,47.464,9.808,59.624,32.167l28.242-17.652c-17.652-30.2-40.4-45.11-84.336-45.11-69.431,0-98.458,40.4-98.458,83.16,0,39.226,26.281,61.585,74.137,69.431,37.266,6.275,51.388,19.22,51.388,44.718,0,24.32-13.339,49.032-67.078,49.032-34.127,0-50.21-11.375-63.154-32.558l-29.421,18.437c15.3,27.459,46.288,44.718,87.867,44.718,76.1,0,106.305-38.05,106.305-83.16,0-45.894-30.206-61.978-70.608-70.607-34.128-7.062-55.309-12.554-55.309-45.112C856.3,339.224,881.794,323.924,917.1,323.924Z"/><path class="sss-cls2" d="M1141.087,323.924c31.382,0,47.465,9.808,59.624,32.167l28.243-17.652c-17.652-30.2-40.4-45.11-84.336-45.11-69.431,0-98.459,40.4-98.459,83.16,0,39.226,26.282,61.585,74.137,69.431,37.267,6.275,51.388,19.22,51.388,44.718,0,24.32-13.338,49.032-67.077,49.032-34.127,0-50.21-11.375-63.155-32.558l-29.42,18.437c15.3,27.459,46.288,44.718,87.866,44.718,76.1,0,106.305-38.05,106.305-83.16,0-45.894-30.2-61.978-70.608-70.607-34.127-7.062-55.308-12.554-55.308-45.112C1080.287,339.224,1105.783,323.924,1141.087,323.924Z"/><path class="sss-cls2" d="M1365.077,323.924c31.382,0,47.464,9.808,59.624,32.167l28.243-17.652c-17.652-30.2-40.4-45.11-84.336-45.11-69.431,0-98.459,40.4-98.459,83.16,0,39.226,26.281,61.585,74.137,69.431,37.267,6.275,51.388,19.22,51.388,44.718,0,24.32-13.338,49.032-67.077,49.032-34.128,0-50.21-11.375-63.155-32.558l-29.42,18.437c15.3,27.459,46.287,44.718,87.866,44.718,76.1,0,106.305-38.05,106.305-83.16,0-45.894-30.2-61.978-70.608-70.607-34.127-7.062-55.308-12.554-55.308-45.112C1304.277,339.224,1329.773,323.924,1365.077,323.924Z"/><polygon class="sss-cls2" points="1581.53 567.129 1744.711 567.129 1744.711 536.532 1615.264 536.532 1615.264 442.389 1732.943 442.389 1732.943 411.792 1615.264 411.792 1615.264 327.063 1744.711 327.063 1744.711 296.467 1581.53 296.467 1581.53 567.129"/><polygon class="sss-cls2" points="1936.136 370.997 1899.265 370.997 1854.153 440.428 1809.042 370.997 1772.169 370.997 1835.717 466.709 1764.324 567.129 1801.198 567.129 1854.153 494.169 1907.109 567.129 1943.983 567.129 1872.589 466.709 1936.136 370.997"/><path class="sss-cls2" d="M2012.632,327.848h-31.38V371h-25.106v28.242h25.106V506.72c0,40.8,13.337,60.409,59.624,60.409h16.866V537.317h-15.689c-26.283,0-29.421-11.375-29.421-38.441V399.239h45.11V371h-45.11Z"/><path class="sss-cls2" d="M2164.83,367.859c-51.386,0-77.669,32.165-77.669,87.867v25.889c0,54.526,31.381,88.652,83.944,88.652,34.128,0,54.919-9.021,68.648-32.95l-24.32-17.26c-8.238,14.514-21.184,21.967-46.681,21.967-34.127,0-50.21-26.674-50.21-60.409v-5.491H2242.5v-20.4C2242.5,399.632,2216.61,367.859,2164.83,367.859Zm-46.288,80.807c1.962-32.558,16.083-52.564,46.288-52.564,29.812,0,44.325,19.613,45.895,52.564Z"/><path class="sss-cls2" d="M2372.341,367.859c-29.029,0-42.758,7.453-52.562,22.359V371H2288.4V567.129h31.382V444.742c0-27.066,18.435-47.856,47.853-47.856,23.144,0,44.719,8.63,44.719,48.249V567.129h31.381V444.742C2443.732,389.825,2414.313,367.859,2372.341,367.859Z"/><path class="sss-cls2" d="M2563.767,454.156c-25.89-1.961-45.5-8.629-45.5-30.988,0-17.259,14.906-26.282,38.05-26.282,27.066,0,38.05,6.277,48.641,20l23.533-16.474c-15.3-24.32-39.616-32.558-71.391-32.558-46.68,0-70.214,23.144-70.214,55.7,0,42.757,32.558,56.093,65.506,58.446,38.049,2.746,50.6,10.2,50.6,31.382,0,17.652-15.689,27.851-41.972,27.851-28.243,0-42.366-5.884-52.956-20l-23.144,16.474c14.906,20.4,35.7,32.558,75.706,32.558,50.6,0,73.747-23.536,73.747-57.663C2634.374,467.494,2600.64,456.9,2563.767,454.156Z"/><rect class="sss-cls2" x="2681.448" y="296.467" width="35.304" height="35.304"/><rect class="sss-cls2" x="2683.408" y="370.997" width="31.382" height="196.133"/><path class="sss-cls2" d="M2843.452,367.859c-51.387,0-81.592,32.165-81.592,87.867v25.889c0,54.133,29.422,88.652,81.592,88.652,56.485,0,81.591-37.657,81.591-88.652V455.726C2925.043,399.632,2895.231,367.859,2843.452,367.859Zm50.21,113.756c0,33.343-16.869,60.409-50.21,60.409-36.087,0-50.21-26.674-50.21-60.409V455.726c0-36.872,18.045-59.624,50.21-59.624s50.21,22.359,50.21,59.624Z"/><path class="sss-cls2" d="M3050.176,367.859c-29.028,0-42.755,7.453-52.562,22.359V371h-31.382V567.129h31.382V444.742c0-27.066,18.435-47.856,47.857-47.856,23.144,0,44.718,8.63,44.718,48.249V567.129h31.378V444.742C3121.567,389.825,3092.149,367.859,3050.176,367.859Z"/></g></svg>