<svg xmlns="http://www.w3.org/2000/svg" viewBox="0 0 800 800"><defs><style>.cls-1{fill:none;}.cls-2{fill:#3a5fa8;}.cls-3{fill:#263d6b;}</style></defs><g id="カラーロゴでーた"><rect class="cls-1" width="800" height="800"/><path class="cls-2" d="M506.684,428.416l-5.653-5.653,76.277-76.277a235.726,235.726,0,0,0-42.348-57.807l-84.007,84.007-25.038-25.038,98.635-98.635a242.477,242.477,0,0,0-42.653-57.5L375.838,297.57,350.8,272.532,449.434,173.9a242.462,242.462,0,0,0-42.653-57.5L300.722,222.455h0L235.166,288.01,342.2,395.048h0L440.252,493.1c.289.289.586.586.862.891a57.07,57.07,0,0,1,15.9,41.21c0,.141-.007.261-.014.4-.028.919-.078,1.845-.163,2.75-.028.425-.056.849-.113,1.259a57.295,57.295,0,1,1-97.5-46.514L374.7,477.617l-64.425-64.424a146.923,146.923,0,0,0-14.453,12.261c-.722.679-1.435,1.379-2.143,2.086a149.928,149.928,0,0,0-10.352,200.677,154.222,154.222,0,0,0,10.352,11.455,150,150,0,0,0,213-211.248Z"/><path class="cls-3" d="M440.252,574.116a57.3,57.3,0,0,1-81.028-81.028L374.7,477.617l-9.143-9.143-49.8-49.794-6.611-6.612L293.675,427.54a149.928,149.928,0,0,0-10.352,200.677A114.584,114.584,0,0,0,456.72,539.6,57.021,57.021,0,0,1,440.252,574.116Z"/></g></svg>