<svg viewBox="0 0 128 128" width="128px" height="128px"xmlns="http://www.w3.org/2000/svg" fill-rule="evenodd" clip-rule="evenodd" stroke-linejoin="round" stroke-miterlimit="2"><path fill="#ebebeb" d="M0 0h128v128.002H0z"/><path d="M10.962 58.775l4.96-.446c.278 2.006.78 3.622 1.671 4.904.836 1.281 2.173 2.34 4.012 3.12 1.783.78 3.845 1.17 6.13 1.17 2.006 0 3.789-.278 5.293-.891 1.56-.613 2.73-1.393 3.455-2.452a5.523 5.523 0 001.115-3.4c0-1.28-.335-2.34-1.06-3.287-.723-.947-1.95-1.727-3.621-2.34-1.059-.446-3.4-1.115-7.077-1.95-3.678-.892-6.24-1.728-7.69-2.508-1.894-1.003-3.343-2.23-4.29-3.734a9.355 9.355 0 01-1.394-4.959c0-2.006.613-3.9 1.728-5.628 1.17-1.727 2.786-3.065 5.015-4.012 2.173-.892 4.625-1.337 7.3-1.337 2.953 0 5.572.501 7.857 1.448 2.229.948 3.956 2.34 5.182 4.18 1.226 1.838 1.895 3.956 1.95 6.296l-5.07.39c-.223-2.563-1.17-4.457-2.73-5.74-1.561-1.28-3.902-1.95-6.966-1.95-3.177 0-5.517.614-6.966 1.784-1.449 1.17-2.173 2.563-2.173 4.235 0 1.448.502 2.619 1.505 3.51 1.058.948 3.677 1.895 7.968 2.842 4.29 1.003 7.244 1.839 8.86 2.563 2.285 1.06 4.012 2.452 5.127 4.068 1.114 1.672 1.671 3.51 1.671 5.684 0 2.117-.613 4.124-1.839 6.018-1.226 1.839-2.953 3.288-5.238 4.347-2.284 1.058-4.848 1.56-7.69 1.56-3.621 0-6.63-.502-9.082-1.56-2.452-1.06-4.347-2.62-5.74-4.737-1.393-2.117-2.117-4.514-2.173-7.188zM48.13 58.775l4.959-.446c.278 2.006.78 3.622 1.671 4.904.836 1.281 2.174 2.34 4.013 3.12 1.783.78 3.844 1.17 6.13 1.17 2.005 0 3.788-.278 5.293-.891 1.56-.613 2.73-1.393 3.455-2.452a5.523 5.523 0 001.114-3.4c0-1.28-.334-2.34-1.059-3.287-.724-.947-1.95-1.727-3.622-2.34-1.058-.446-3.399-1.115-7.076-1.95-3.678-.892-6.241-1.728-7.69-2.508-1.895-1.003-3.344-2.23-4.291-3.734a9.355 9.355 0 01-1.393-4.959c0-2.006.613-3.9 1.727-5.628 1.17-1.727 2.787-3.065 5.015-4.012 2.174-.892 4.625-1.337 7.3-1.337 2.954 0 5.573.501 7.857 1.448 2.23.948 3.957 2.34 5.182 4.18 1.226 1.838 1.895 3.956 1.95 6.296l-5.07.39c-.223-2.563-1.17-4.457-2.73-5.74-1.56-1.28-3.901-1.95-6.966-1.95-3.176 0-5.517.614-6.965 1.784-1.45 1.17-2.174 2.563-2.174 4.235 0 1.448.502 2.619 1.505 3.51 1.059.948 3.678 1.895 7.968 2.842 4.291 1.003 7.244 1.839 8.86 2.563 2.285 1.06 4.013 2.452 5.127 4.068 1.114 1.672 1.672 3.51 1.672 5.684 0 2.117-.613 4.124-1.84 6.018-1.225 1.839-2.953 3.288-5.237 4.347-2.285 1.058-4.848 1.56-7.69 1.56-3.622 0-6.631-.502-9.083-1.56-2.452-1.06-4.346-2.62-5.74-4.737-1.392-2.117-2.117-4.514-2.173-7.188zM85.297 58.775l4.96-.446c.278 2.006.78 3.622 1.67 4.904.837 1.281 2.174 2.34 4.013 3.12 1.783.78 3.845 1.17 6.13 1.17 2.006 0 3.789-.278 5.293-.891 1.56-.613 2.73-1.393 3.455-2.452a5.523 5.523 0 001.115-3.4c0-1.28-.335-2.34-1.06-3.287-.724-.947-1.95-1.727-3.621-2.34-1.059-.446-3.4-1.115-7.077-1.95-3.678-.892-6.241-1.728-7.69-2.508-1.894-1.003-3.343-2.23-4.29-3.734a9.355 9.355 0 01-1.394-4.959c0-2.006.613-3.9 1.728-5.628 1.17-1.727 2.786-3.065 5.015-4.012 2.173-.892 4.625-1.337 7.3-1.337 2.953 0 5.572.501 7.857 1.448 2.229.948 3.956 2.34 5.182 4.18 1.226 1.838 1.895 3.956 1.95 6.296l-5.07.39c-.223-2.563-1.17-4.457-2.731-5.74-1.56-1.28-3.9-1.95-6.965-1.95-3.177 0-5.517.614-6.966 1.784-1.449 1.17-2.173 2.563-2.173 4.235 0 1.448.501 2.619 1.504 3.51 1.06.948 3.678 1.895 7.969 2.842 4.29 1.003 7.244 1.839 8.86 2.563 2.285 1.06 4.012 2.452 5.126 4.068 1.115 1.672 1.672 3.51 1.672 5.684 0 2.117-.613 4.124-1.839 6.018-1.226 1.839-2.953 3.288-5.238 4.347-2.284 1.058-4.848 1.56-7.69 1.56-3.622 0-6.63-.502-9.082-1.56-2.452-1.06-4.347-2.62-5.74-4.737-1.393-2.117-2.117-4.514-2.173-7.188z" fill-rule="nonzero"/><g><path d="M21.251 100.674l2.284.276c-.376 1.33-1.029 2.359-2.008 3.112-.979.728-2.208 1.104-3.714 1.104-1.908 0-3.414-.602-4.543-1.757-1.104-1.18-1.656-2.836-1.656-4.944 0-2.183.552-3.89 1.681-5.095 1.13-1.204 2.585-1.807 4.392-1.807 1.732 0 3.163.577 4.267 1.782 1.104 1.18 1.656 2.836 1.656 4.995 0 .125-.025.326-.025.577h-9.713c.1 1.43.502 2.535 1.23 3.288.728.753 1.631 1.13 2.71 1.13.804 0 1.507-.202 2.084-.628.552-.427 1.029-1.105 1.355-2.033zm-7.253-3.564h7.278c-.1-1.104-.376-1.908-.828-2.46-.703-.853-1.631-1.28-2.736-1.28-1.029 0-1.882.352-2.56 1.03-.702.677-1.079 1.58-1.154 2.71zM24.82 104.865l4.768-6.776-4.417-6.25h2.76l2.008 3.062c.377.577.678 1.08.904 1.456.351-.527.702-1.004 1.004-1.43l2.183-3.088h2.635l-4.492 6.15 4.844 6.876h-2.71l-2.686-4.04-.703-1.105-3.413 5.145h-2.686zM43.668 102.882l.326 1.958c-.628.125-1.18.2-1.682.2-.803 0-1.43-.125-1.857-.376a2.098 2.098 0 01-.929-1.004c-.175-.426-.276-1.28-.276-2.61v-7.479h-1.606v-1.732h1.606v-3.212l2.184-1.33v4.542h2.234v1.732h-2.234v7.605c0 .627.05 1.029.125 1.204.076.201.201.327.377.427.176.125.426.176.753.176.25 0 .577-.025.979-.1zM54.731 100.674l2.284.276c-.376 1.33-1.029 2.359-2.007 3.112-.98.728-2.209 1.104-3.715 1.104-1.907 0-3.413-.602-4.543-1.757-1.104-1.18-1.656-2.836-1.656-4.944 0-2.183.552-3.89 1.682-5.095 1.129-1.204 2.585-1.807 4.392-1.807 1.731 0 3.162.577 4.266 1.782 1.105 1.18 1.657 2.836 1.657 4.995 0 .125-.025.326-.025.577h-9.713c.1 1.43.502 2.535 1.23 3.288.727.753 1.63 1.13 2.71 1.13.803 0 1.506-.202 2.083-.628.552-.427 1.03-1.105 1.355-2.033zm-7.253-3.564h7.279c-.1-1.104-.377-1.908-.829-2.46-.702-.853-1.631-1.28-2.735-1.28-1.03 0-1.883.352-2.56 1.03-.703.677-1.08 1.58-1.155 2.71zM59.778 104.865V91.839h1.983v1.858c.954-1.431 2.334-2.134 4.141-2.134.778 0 1.506.126 2.158.427.653.276 1.155.652 1.481 1.104.327.452.552 1.004.678 1.632.1.401.125 1.104.125 2.133v8.006h-2.208v-7.906c0-.903-.076-1.58-.251-2.033a2.164 2.164 0 00-.904-1.054c-.451-.276-.953-.401-1.53-.401-.954 0-1.758.3-2.435.903-.703.577-1.03 1.707-1.03 3.388v7.103h-2.208zM72.858 100.975l2.184-.326c.125.853.452 1.53 1.004 2.007.577.452 1.355.678 2.359.678s1.757-.2 2.259-.602c.477-.427.728-.904.728-1.456 0-.502-.226-.903-.653-1.18-.301-.2-1.054-.451-2.259-.752-1.606-.402-2.735-.753-3.363-1.055-.627-.3-1.08-.702-1.405-1.23a3.26 3.26 0 01-.502-1.756c0-.577.15-1.105.401-1.606a3.646 3.646 0 011.08-1.23c.35-.251.828-.477 1.405-.653a6.737 6.737 0 011.907-.25c1.03 0 1.933.15 2.71.426.754.301 1.331.703 1.708 1.205.351.502.602 1.18.753 2.007l-2.159.302c-.1-.678-.376-1.205-.853-1.582-.477-.376-1.13-.552-1.983-.552-1.029 0-1.732.176-2.183.502-.427.326-.653.728-.653 1.18 0 .276.1.552.276.778.176.226.477.426.853.577.226.075.854.276 1.933.577 1.581.402 2.66.753 3.288 1.004.602.276 1.079.653 1.43 1.155.352.527.527 1.154.527 1.907 0 .728-.2 1.43-.627 2.058-.427.653-1.054 1.155-1.857 1.506-.803.377-1.732.552-2.761.552-1.682 0-2.962-.351-3.865-1.054-.879-.703-1.43-1.757-1.682-3.137zM86.286 89.43v-2.535h2.208v2.535h-2.208zm0 15.435V91.839h2.208v13.026h-2.208zM91.033 98.365c0-2.41.678-4.192 2.008-5.371 1.13-.954 2.485-1.43 4.091-1.43 1.807 0 3.263.576 4.392 1.756 1.13 1.18 1.707 2.786 1.707 4.844 0 1.681-.251 3.012-.753 3.965a5.351 5.351 0 01-2.184 2.234 6.508 6.508 0 01-3.162.803c-1.807 0-3.288-.602-4.417-1.757-1.104-1.18-1.682-2.86-1.682-5.044zm2.284 0c0 1.656.352 2.911 1.08 3.74.727.827 1.63 1.23 2.735 1.23 1.104 0 2.008-.403 2.736-1.23.728-.854 1.104-2.109 1.104-3.816 0-1.606-.376-2.836-1.104-3.664-.728-.828-1.632-1.255-2.736-1.255-1.104 0-2.008.427-2.736 1.255-.727.828-1.079 2.058-1.079 3.74zM105.82 104.865V91.839h1.983v1.858c.954-1.431 2.334-2.134 4.14-2.134.779 0 1.507.126 2.16.427.652.276 1.154.652 1.48 1.104.326.452.552 1.004.678 1.632.1.401.125 1.104.125 2.133v8.006h-2.208v-7.906c0-.903-.076-1.58-.251-2.033a2.164 2.164 0 00-.904-1.054c-.452-.276-.954-.401-1.53-.401-.955 0-1.758.3-2.435.903-.703.577-1.03 1.707-1.03 3.388v7.103h-2.208z" fill-rule="nonzero"/></g></svg>