<svg viewBox="0 0 128 64" width="128px" height="64px" xmlns="http://www.w3.org/2000/svg" fill-rule="evenodd" clip-rule="evenodd" stroke-linejoin="round" stroke-miterlimit="2"><path fill="#ebebeb" d="M0 0h128v64H0z"/><path d="M28.857 27.413l3.286-.295c.184 1.329.517 2.4 1.108 3.25.553.848 1.44 1.55 2.658 2.067 1.182.517 2.548.775 4.062.775 1.33 0 2.51-.184 3.508-.59 1.033-.407 1.809-.924 2.289-1.625a3.66 3.66 0 00.738-2.253c0-.849-.221-1.55-.701-2.178-.48-.628-1.293-1.145-2.4-1.55-.702-.296-2.253-.74-4.69-1.293-2.437-.591-4.135-1.145-5.095-1.662-1.256-.665-2.216-1.477-2.843-2.474a6.199 6.199 0 01-.924-3.286c0-1.33.407-2.585 1.145-3.73.776-1.144 1.846-2.03 3.323-2.658 1.44-.59 3.065-.886 4.837-.886 1.957 0 3.693.332 5.207.96 1.477.628 2.621 1.55 3.434 2.77.812 1.218 1.255 2.62 1.292 4.172l-3.36.258c-.148-1.698-.775-2.954-1.81-3.803-1.033-.85-2.584-1.293-4.615-1.293-2.105 0-3.655.407-4.615 1.182-.96.775-1.44 1.699-1.44 2.806 0 .96.332 1.736.996 2.327.702.627 2.438 1.255 5.28 1.883 2.844.664 4.8 1.218 5.872 1.698 1.514.702 2.658 1.625 3.397 2.696.738 1.107 1.107 2.326 1.107 3.766 0 1.403-.406 2.732-1.218 3.988-.812 1.218-1.957 2.178-3.47 2.88-1.515.702-3.213 1.034-5.097 1.034-2.4 0-4.394-.332-6.018-1.034-1.625-.702-2.88-1.735-3.803-3.139-.924-1.403-1.404-2.99-1.44-4.763zM53.485 27.413l3.286-.295c.185 1.329.517 2.4 1.108 3.25.554.848 1.44 1.55 2.659 2.067 1.181.517 2.548.775 4.061.775 1.33 0 2.511-.184 3.508-.59 1.034-.407 1.81-.924 2.29-1.625a3.66 3.66 0 00.738-2.253c0-.849-.222-1.55-.702-2.178-.48-.628-1.292-1.145-2.4-1.55-.701-.296-2.252-.74-4.689-1.293-2.437-.591-4.136-1.145-5.096-1.662-1.255-.665-2.215-1.477-2.843-2.474a6.199 6.199 0 01-.923-3.286c0-1.33.406-2.585 1.145-3.73.775-1.144 1.846-2.03 3.323-2.658 1.44-.59 3.065-.886 4.837-.886 1.957 0 3.693.332 5.206.96 1.477.628 2.622 1.55 3.434 2.77.813 1.218 1.256 2.62 1.293 4.172l-3.36.258c-.148-1.698-.776-2.954-1.81-3.803-1.034-.85-2.584-1.293-4.615-1.293-2.105 0-3.656.407-4.616 1.182-.96.775-1.44 1.699-1.44 2.806 0 .96.332 1.736.997 2.327.702.627 2.437 1.255 5.28 1.883 2.844.664 4.8 1.218 5.871 1.698 1.514.702 2.659 1.625 3.397 2.696.739 1.107 1.108 2.326 1.108 3.766 0 1.403-.406 2.732-1.218 3.988-.813 1.218-1.957 2.178-3.471 2.88s-3.213 1.034-5.096 1.034c-2.4 0-4.394-.332-6.019-1.034-1.624-.702-2.88-1.735-3.803-3.139-.923-1.403-1.403-2.99-1.44-4.763zM78.114 27.413l3.286-.295c.185 1.329.517 2.4 1.108 3.25.554.848 1.44 1.55 2.658 2.067 1.182.517 2.548.775 4.062.775 1.33 0 2.51-.184 3.508-.59 1.034-.407 1.81-.924 2.29-1.625a3.66 3.66 0 00.738-2.253c0-.849-.222-1.55-.702-2.178-.48-.628-1.292-1.145-2.4-1.55-.702-.296-2.252-.74-4.69-1.293-2.436-.591-4.135-1.145-5.095-1.662-1.255-.665-2.215-1.477-2.843-2.474a6.199 6.199 0 01-.923-3.286c0-1.33.406-2.585 1.144-3.73.776-1.144 1.847-2.03 3.324-2.658 1.44-.59 3.064-.886 4.837-.886 1.957 0 3.692.332 5.206.96 1.477.628 2.622 1.55 3.434 2.77.812 1.218 1.255 2.62 1.292 4.172l-3.36.258c-.147-1.698-.775-2.954-1.809-3.803-1.034-.85-2.585-1.293-4.616-1.293-2.104 0-3.655.407-4.615 1.182-.96.775-1.44 1.699-1.44 2.806 0 .96.332 1.736.997 2.327.701.627 2.437 1.255 5.28 1.883 2.843.664 4.8 1.218 5.87 1.698 1.515.702 2.66 1.625 3.398 2.696.738 1.107 1.108 2.326 1.108 3.766 0 1.403-.406 2.732-1.219 3.988-.812 1.218-1.957 2.178-3.47 2.88-1.515.702-3.213 1.034-5.096 1.034-2.4 0-4.394-.332-6.019-1.034s-2.88-1.735-3.803-3.139c-.923-1.403-1.403-2.99-1.44-4.763z" fill-rule="nonzero"/><g><path d="M25.414 54.334l2.062.25c-.34 1.2-.93 2.13-1.813 2.809-.883.657-1.993.997-3.353.997-1.721 0-3.08-.544-4.1-1.586-.997-1.065-1.495-2.56-1.495-4.463 0-1.971.498-3.512 1.517-4.6 1.02-1.087 2.334-1.63 3.965-1.63 1.563 0 2.855.52 3.851 1.608.997 1.065 1.496 2.56 1.496 4.509 0 .113-.023.294-.023.52h-8.768c.091 1.292.454 2.289 1.11 2.968.658.68 1.473 1.02 2.447 1.02.725 0 1.36-.181 1.88-.567.499-.385.93-.996 1.224-1.835zm-6.547-3.217h6.57c-.091-.996-.34-1.721-.748-2.22-.634-.77-1.473-1.155-2.47-1.155-.928 0-1.698.317-2.31.929-.634.611-.974 1.427-1.042 2.446zM28.635 58.118L32.939 52l-3.987-5.641h2.492l1.812 2.764c.34.52.612.974.816 1.314.317-.476.634-.906.906-1.292l1.971-2.786h2.379l-4.055 5.55 4.372 6.208h-2.447l-2.424-3.648-.634-.996-3.081 4.644h-2.424zM45.649 56.328l.294 1.767c-.566.113-1.065.181-1.518.181-.725 0-1.291-.113-1.676-.34a1.894 1.894 0 01-.838-.906c-.159-.385-.25-1.155-.25-2.356v-6.75h-1.45V46.36h1.45v-2.9l1.971-1.2v4.1h2.017v1.563h-2.017v6.865c0 .566.046.928.114 1.087a.711.711 0 00.34.385c.158.113.385.159.68.159.226 0 .52-.023.883-.091zM55.636 54.334l2.061.25c-.34 1.2-.929 2.13-1.812 2.809-.884.657-1.994.997-3.353.997-1.722 0-3.081-.544-4.1-1.586-.997-1.065-1.496-2.56-1.496-4.463 0-1.971.499-3.512 1.518-4.6 1.02-1.087 2.334-1.63 3.965-1.63 1.563 0 2.854.52 3.851 1.608.997 1.065 1.495 2.56 1.495 4.509 0 .113-.022.294-.022.52h-8.768c.09 1.292.453 2.289 1.11 2.968.657.68 1.473 1.02 2.447 1.02.725 0 1.36-.181 1.88-.567.499-.385.93-.996 1.224-1.835zm-6.548-3.217h6.57c-.09-.996-.34-1.721-.747-2.22-.635-.77-1.473-1.155-2.47-1.155-.929 0-1.699.317-2.31.929-.635.611-.975 1.427-1.043 2.446zM60.191 58.118V46.36h1.79v1.676c.86-1.291 2.107-1.925 3.738-1.925.702 0 1.36.113 1.948.385.59.249 1.042.589 1.337.997.294.407.498.906.612 1.472.09.363.113.997.113 1.926v7.227h-1.994V50.98c0-.815-.068-1.427-.226-1.835a1.953 1.953 0 00-.816-.951c-.408-.25-.86-.363-1.382-.363-.86 0-1.586.272-2.197.816-.635.521-.93 1.54-.93 3.058v6.412h-1.993zM71.998 54.606l1.971-.294c.113.77.408 1.382.906 1.812.521.408 1.224.612 2.13.612.906 0 1.586-.181 2.039-.544.43-.385.657-.815.657-1.314 0-.453-.204-.815-.59-1.065-.271-.18-.95-.407-2.038-.68-1.45-.362-2.47-.679-3.036-.95a2.943 2.943 0 01-1.722-2.696c0-.522.136-.998.363-1.45a3.29 3.29 0 01.974-1.11c.317-.227.748-.431 1.269-.59a6.081 6.081 0 011.721-.226c.93 0 1.745.136 2.447.385.68.272 1.2.634 1.54 1.087.318.453.544 1.065.68 1.813l-1.948.271c-.09-.611-.34-1.087-.77-1.427-.43-.34-1.02-.498-1.79-.498-.929 0-1.563.158-1.971.453-.385.294-.589.657-.589 1.065 0 .249.09.498.25.702.158.204.43.385.77.521.203.068.77.25 1.744.521 1.427.363 2.401.68 2.968.906.543.25.974.59 1.291 1.042.317.476.476 1.043.476 1.722 0 .657-.181 1.292-.567 1.858-.385.589-.951 1.042-1.676 1.36-.725.34-1.563.498-2.492.498-1.518 0-2.673-.318-3.489-.952-.793-.634-1.291-1.586-1.518-2.832zM84.119 44.185v-2.288h1.993v2.288H84.12zm0 13.933V46.36h1.993v11.758H84.12zM88.404 52.25c0-2.175.612-3.783 1.813-4.848 1.019-.86 2.242-1.291 3.692-1.291 1.631 0 2.945.52 3.965 1.586 1.02 1.064 1.54 2.514 1.54 4.372 0 1.518-.226 2.719-.68 3.58a4.83 4.83 0 01-1.97 2.016 5.874 5.874 0 01-2.855.725c-1.63 0-2.968-.544-3.987-1.586-.997-1.065-1.518-2.583-1.518-4.554zm2.062 0c0 1.495.317 2.628.974 3.376.657.747 1.472 1.11 2.47 1.11.996 0 1.812-.363 2.469-1.11.657-.77.996-1.903.996-3.444 0-1.45-.34-2.56-.996-3.307-.657-.748-1.473-1.133-2.47-1.133-.997 0-1.812.385-2.47 1.133-.656.747-.973 1.857-.973 3.375zM101.752 58.118V46.36h1.79v1.676c.86-1.291 2.106-1.925 3.737-1.925.703 0 1.36.113 1.949.385.589.249 1.042.589 1.336.997.295.407.499.906.612 1.472.09.363.113.997.113 1.926v7.227h-1.993V50.98c0-.815-.068-1.427-.227-1.835a1.953 1.953 0 00-.815-.951c-.408-.25-.861-.363-1.382-.363-.861 0-1.586.272-2.198.816-.634.521-.929 1.54-.929 3.058v6.412h-1.993z" fill-rule="nonzero"/></g></svg>