<svg viewBox="0 0 64 64" width="64px" height="64px" xmlns="http://www.w3.org/2000/svg" fill-rule="evenodd" clip-rule="evenodd" stroke-linejoin="round" stroke-miterlimit="2"><path fill="#ebebeb" d="M0 0h64v64H0z"/><path d="M5.483 29.388l2.48-.222c.139 1.003.39 1.81.835 2.451.418.641 1.087 1.17 2.006 1.56.892.39 1.923.586 3.065.586 1.003 0 1.895-.14 2.647-.446.78-.307 1.365-.697 1.727-1.226.39-.53.558-1.087.558-1.7 0-.64-.168-1.17-.53-1.643-.362-.474-.975-.864-1.81-1.17-.53-.223-1.7-.558-3.54-.976-1.838-.446-3.12-.863-3.844-1.254-.947-.501-1.672-1.114-2.145-1.866a4.677 4.677 0 01-.697-2.48c0-1.003.307-1.95.864-2.814.585-.864 1.393-1.532 2.507-2.006 1.087-.446 2.313-.669 3.65-.669 1.477 0 2.786.251 3.929.725 1.114.473 1.978 1.17 2.59 2.09.614.919.948 1.977.976 3.148l-2.535.195c-.112-1.282-.586-2.23-1.366-2.87-.78-.64-1.95-.975-3.482-.975-1.588 0-2.759.306-3.483.891-.724.585-1.087 1.282-1.087 2.118 0 .724.251 1.31.753 1.755.529.474 1.838.947 3.984 1.421 2.145.502 3.622.92 4.43 1.282 1.142.53 2.006 1.226 2.563 2.034.557.835.836 1.755.836 2.842 0 1.058-.307 2.061-.92 3.009-.612.919-1.476 1.643-2.618 2.173-1.143.53-2.424.78-3.845.78-1.811 0-3.316-.25-4.542-.78s-2.173-1.31-2.87-2.368c-.696-1.06-1.058-2.257-1.086-3.595zM24.067 29.388l2.48-.222c.139 1.003.39 1.81.835 2.451.418.641 1.087 1.17 2.006 1.56.892.39 1.923.586 3.065.586 1.003 0 1.895-.14 2.647-.446.78-.307 1.365-.697 1.727-1.226.39-.53.557-1.087.557-1.7 0-.64-.167-1.17-.529-1.643-.362-.474-.975-.864-1.811-1.17-.53-.223-1.7-.558-3.538-.976-1.84-.446-3.12-.863-3.845-1.254-.948-.501-1.672-1.114-2.146-1.866a4.677 4.677 0 01-.696-2.48c0-1.003.306-1.95.864-2.814.585-.864 1.393-1.532 2.507-2.006 1.087-.446 2.313-.669 3.65-.669 1.477 0 2.786.251 3.928.725 1.115.473 1.979 1.17 2.592 2.09.613.919.947 1.977.975 3.148l-2.536.195c-.111-1.282-.585-2.23-1.365-2.87-.78-.64-1.95-.975-3.483-.975-1.588 0-2.758.306-3.482.891-.725.585-1.087 1.282-1.087 2.118 0 .724.25 1.31.752 1.755.53.474 1.84.947 3.985 1.421 2.145.502 3.622.92 4.43 1.282 1.142.53 2.006 1.226 2.563 2.034.557.835.836 1.755.836 2.842 0 1.058-.307 2.061-.92 3.009-.613.919-1.476 1.643-2.619 2.173-1.142.53-2.424.78-3.845.78-1.81 0-3.315-.25-4.541-.78-1.226-.53-2.173-1.31-2.87-2.368-.696-1.06-1.059-2.257-1.086-3.595zM42.65 29.388l2.48-.222c.14 1.003.39 1.81.836 2.451.418.641 1.086 1.17 2.006 1.56.891.39 1.922.586 3.065.586 1.003 0 1.894-.14 2.647-.446.78-.307 1.365-.697 1.727-1.226.39-.53.557-1.087.557-1.7 0-.64-.167-1.17-.53-1.643-.361-.474-.974-.864-1.81-1.17-.53-.223-1.7-.558-3.539-.976-1.838-.446-3.12-.863-3.845-1.254-.947-.501-1.671-1.114-2.145-1.866a4.677 4.677 0 01-.696-2.48c0-1.003.306-1.95.863-2.814.585-.864 1.393-1.532 2.508-2.006 1.086-.446 2.312-.669 3.65-.669 1.476 0 2.786.251 3.928.725 1.115.473 1.978 1.17 2.591 2.09.613.919.948 1.977.976 3.148l-2.536.195c-.111-1.282-.585-2.23-1.365-2.87-.78-.64-1.95-.975-3.483-.975-1.588 0-2.758.306-3.483.891-.724.585-1.086 1.282-1.086 2.118 0 .724.25 1.31.752 1.755.53.474 1.839.947 3.984 1.421 2.146.502 3.622.92 4.43 1.282 1.143.53 2.006 1.226 2.564 2.034.557.835.835 1.755.835 2.842 0 1.058-.306 2.061-.919 3.009-.613.919-1.477 1.643-2.619 2.173-1.142.53-2.424.78-3.845.78-1.81 0-3.315-.25-4.541-.78-1.226-.53-2.174-1.31-2.87-2.368-.697-1.06-1.059-2.257-1.087-3.595z" fill-rule="nonzero"/><g><path d="M10.626 50.336l1.142.138c-.188.666-.515 1.18-1.004 1.556-.49.364-1.104.553-1.857.553-.954 0-1.707-.302-2.272-.879-.552-.59-.828-1.418-.828-2.472 0-1.092.276-1.945.841-2.547.565-.603 1.293-.904 2.196-.904.866 0 1.581.289 2.133.891.553.59.829 1.418.829 2.497 0 .063-.013.163-.013.289H6.937c.05.715.25 1.267.615 1.644.363.376.815.565 1.355.565.401 0 .753-.1 1.041-.314.276-.213.515-.552.678-1.017zm-3.627-1.782h3.64c-.05-.552-.189-.953-.415-1.23a1.7 1.7 0 00-1.367-.64c-.515 0-.942.176-1.28.515-.352.339-.54.79-.578 1.355zM12.41 52.432l2.384-3.388-2.208-3.125h1.38l1.004 1.531c.188.289.339.54.452.728.175-.264.351-.502.502-.715l1.092-1.544h1.317l-2.246 3.075 2.422 3.438h-1.355l-1.343-2.02-.352-.552-1.706 2.572H12.41zM21.834 51.44l.163.98c-.313.062-.59.1-.84.1-.402 0-.716-.063-.929-.188a1.05 1.05 0 01-.464-.502c-.088-.214-.138-.64-.138-1.305v-3.74h-.803v-.866h.803v-1.606l1.091-.665v2.271h1.117v.866h-1.117v3.802c0 .314.026.515.063.603.038.1.1.163.188.213.088.063.214.088.377.088.125 0 .288-.013.49-.05zM27.366 50.336l1.142.138c-.188.666-.514 1.18-1.004 1.556-.49.364-1.104.553-1.857.553-.954 0-1.707-.302-2.271-.879-.552-.59-.829-1.418-.829-2.472 0-1.092.277-1.945.841-2.547.565-.603 1.293-.904 2.196-.904.866 0 1.581.289 2.134.891.552.59.828 1.418.828 2.497 0 .063-.013.163-.013.289h-4.856c.05.715.25 1.267.615 1.644.364.376.815.565 1.355.565.402 0 .753-.1 1.042-.314.276-.213.514-.552.677-1.017zm-3.626-1.782h3.639c-.05-.552-.188-.953-.414-1.23a1.7 1.7 0 00-1.368-.64c-.515 0-.941.176-1.28.515-.352.339-.54.79-.577 1.355zM29.89 52.432V45.92h.991v.929c.477-.715 1.167-1.067 2.07-1.067.39 0 .753.063 1.08.213.326.139.577.327.74.553.163.226.276.502.339.815.05.201.063.552.063 1.067v4.003h-1.105V48.48c0-.452-.037-.79-.125-1.016a1.082 1.082 0 00-.452-.527 1.424 1.424 0 00-.765-.201c-.477 0-.879.15-1.218.452-.35.288-.514.853-.514 1.694v3.551H29.89zM36.43 50.487l1.091-.163c.063.427.226.765.502 1.004.289.226.678.339 1.18.339.502 0 .878-.1 1.13-.302.238-.213.363-.451.363-.727a.673.673 0 00-.326-.59c-.15-.1-.527-.226-1.13-.377-.803-.2-1.367-.376-1.68-.527a1.63 1.63 0 01-.954-1.493c0-.289.075-.552.2-.803.138-.251.314-.452.54-.615.175-.126.414-.239.702-.326.302-.088.615-.126.954-.126.515 0 .966.075 1.355.213.377.151.666.352.854.603.175.25.301.59.376 1.004l-1.079.15c-.05-.338-.188-.602-.427-.79-.238-.188-.564-.276-.991-.276-.514 0-.866.088-1.092.25-.213.164-.326.365-.326.59 0 .138.05.277.138.39.088.112.238.213.427.288.113.038.426.138.966.289.79.2 1.33.376 1.644.502.301.138.54.326.715.577.176.263.264.577.264.954 0 .364-.1.715-.314 1.029-.213.326-.527.577-.929.753-.401.188-.866.276-1.38.276-.84 0-1.48-.176-1.933-.527-.439-.352-.715-.879-.84-1.569zM43.143 44.714v-1.267h1.105v1.267h-1.105zm0 7.718V45.92h1.105v6.513h-1.105zM45.517 49.182c0-1.205.339-2.096 1.004-2.686.565-.476 1.242-.715 2.046-.715.903 0 1.63.289 2.196.879.564.59.853 1.393.853 2.422 0 .84-.126 1.505-.377 1.982a2.676 2.676 0 01-1.091 1.117 3.254 3.254 0 01-1.581.402c-.904 0-1.644-.302-2.21-.879-.551-.59-.84-1.43-.84-2.522zm1.142 0c0 .828.176 1.456.54 1.87.364.414.815.615 1.368.615.552 0 1.003-.201 1.367-.615.364-.427.553-1.054.553-1.908 0-.803-.189-1.418-.553-1.832a1.745 1.745 0 00-1.367-.627c-.553 0-1.004.213-1.368.627-.364.414-.54 1.03-.54 1.87zM52.91 52.432V45.92h.992v.929c.477-.715 1.167-1.067 2.07-1.067.39 0 .753.063 1.08.213.326.139.577.327.74.553.163.226.276.502.339.815.05.201.063.552.063 1.067v4.003h-1.105V48.48c0-.452-.037-.79-.125-1.016a1.082 1.082 0 00-.452-.527 1.424 1.424 0 00-.765-.201c-.477 0-.879.15-1.218.452-.351.288-.514.853-.514 1.694v3.551H52.91z" fill-rule="nonzero"/></g></svg>